<svg xmlns="http://www.w3.org/2000/svg" viewBox="0 0 200 80" fill="none">
  <rect width="200" height="80" rx="12" fill="#2E1810"/>
  <path d="M42 22h18c7.7 0 13 4.3 13 10.5 0 4.2-2.5 7.6-6.4 9.2 5.1 1.4 8.4 5.3 8.4 10.3 0 7.2-5.9 12-14.5 12H42V22zm10 17.5h7.5c3.5 0 5.8-2 5.8-5.2 0-3.1-2.3-5.1-5.8-5.1H52v10.3zm0 17.2h8.5c4 0 6.6-2.1 6.6-5.7 0-3.5-2.6-5.6-6.6-5.6H52v11.3z" fill="#D4AF37"/>
  <text x="82" y="38" font-family="'Fraunces', serif" font-size="20" font-weight="700" fill="#FFF8F0" letter-spacing="2">BIZU</text>
  <text x="82" y="54" font-family="'Figtree', sans-serif" font-size="8.5" font-weight="600" fill="#E8BD70" letter-spacing="3">CATERING STUDIO</text>
  <circle cx="170" cy="40" r="3" fill="#D4AF37"/>
</svg>
