<?xml version="1.0" encoding="UTF-8"?><svg id="Layer_1" xmlns="http://www.w3.org/2000/svg" viewBox="0 0 1000 383.916"><path d="M993.021,106.588h0c-17.343,0-31.402-14.059-31.402-31.402v-14.462c0-3.854-3.125-6.979-6.979-6.979h0c-3.854,0-6.979,3.125-6.979,6.979v14.462c0,17.343-14.059,31.402-31.402,31.402h0c-3.854,0-6.979,3.125-6.979,6.979h0c0,3.854,3.125,6.979,6.979,6.979h0c17.343,0,31.402,14.059,31.402,31.402v14.462c0,3.854,3.125,6.979,6.979,6.979h0c3.854,0,6.979-3.125,6.979-6.979v-14.462c0-17.343,14.059-31.402,31.402-31.402h0c3.854,0,6.979-3.125,6.979-6.979h0c0-3.854-3.125-6.979-6.979-6.979Z" fill="#fff"/><path d="M374.007,182.453c-3.264,0-5.867-.753-7.812-2.259-1.946-1.505-2.917-3.323-2.917-5.458V52.774c0-2.635,1.129-4.612,3.387-5.929,2.259-1.318,4.705-1.977,7.341-1.977h36.512c6.4,0,12.484.912,18.257,2.729,5.77,1.821,10.475,5.114,14.116,9.881,3.637,4.77,5.459,11.607,5.459,20.515,0,7.655-1.445,14.022-4.329,19.104-.936,1.646-1.976,3.137-3.121,4.473-2.998,3.499-2.569,8.716,1.023,11.602.199.16.396.323.591.488,2.886,2.446,5.145,5.646,6.777,9.598,1.628,3.953,2.446,9.067,2.446,15.34v3.952c0,9.787-1.665,17.598-4.988,23.433-3.325,5.835-7.843,10.04-13.55,12.611-5.713,2.573-12.079,3.858-19.104,3.858h-40.089ZM387.747,93.501c0,2.662,2.158,4.82,4.82,4.82h16.26c5.143,0,8.94-1.505,11.387-4.517,2.446-3.012,3.671-6.899,3.671-11.669,0-3.388-.63-6.241-1.882-8.564-1.255-2.321-3.013-4.108-5.27-5.364-2.259-1.253-4.959-1.882-8.095-1.882h-16.071c-2.662,0-4.82,2.158-4.82,4.82v22.355ZM387.747,156.177c0,2.662,2.158,4.82,4.82,4.82h16.26c5.77,0,10.287-1.629,13.552-4.894,3.261-3.262,4.893-8.47,4.893-15.621v-3.012c0-7.403-1.632-12.579-4.893-15.528-3.264-2.947-7.782-4.423-13.552-4.423h-16.26c-2.662,0-4.82,2.158-4.82,4.82v33.837Z" fill="#fff"/><path d="M374.007,342.435c-3.264,0-5.867-.753-7.812-2.259-1.946-1.505-2.917-3.323-2.917-5.458v-121.962c0-2.635,1.129-4.612,3.387-5.929,2.259-1.318,4.705-1.977,7.341-1.977h36.512c6.4,0,12.484.912,18.257,2.729,5.77,1.821,10.475,5.114,14.116,9.881,3.637,4.77,5.459,11.607,5.459,20.515,0,7.655-1.445,14.022-4.329,19.104-.936,1.646-1.976,3.137-3.121,4.473-2.998,3.499-2.569,8.716,1.023,11.602.199.16.396.323.591.488,2.886,2.446,5.145,5.646,6.777,9.598,1.628,3.953,2.446,9.067,2.446,15.34v3.952c0,9.787-1.665,17.598-4.988,23.433-3.325,5.835-7.843,10.04-13.55,12.611-5.713,2.573-12.079,3.858-19.104,3.858h-40.089ZM387.747,253.483c0,2.662,2.158,4.82,4.82,4.82h16.26c5.143,0,8.94-1.505,11.387-4.517,2.446-3.012,3.671-6.899,3.671-11.669,0-3.388-.63-6.241-1.882-8.564-1.255-2.321-3.013-4.108-5.27-5.364-2.259-1.253-4.959-1.882-8.095-1.882h-16.071c-2.662,0-4.82,2.158-4.82,4.82v22.355ZM387.747,316.158c0,2.662,2.158,4.82,4.82,4.82h16.26c5.77,0,10.287-1.629,13.552-4.894,3.261-3.262,4.893-8.47,4.893-15.621v-3.012c0-7.403-1.632-12.579-4.893-15.528-3.264-2.947-7.782-4.423-13.552-4.423h-16.26c-2.662,0-4.82,2.158-4.82,4.82v33.837Z" fill="#fff"/><path d="M549.232,183.395c-1.632,0-3.231-.503-4.799-1.505-1.57-1.004-2.794-2.447-3.671-4.329l-24.482-47.588c-1.377-2.676-4.134-4.359-7.144-4.359h-2.875c-4.437,0-8.034,3.597-8.034,8.034v40.901c0,2.636-1.255,4.612-3.764,5.929-2.511,1.317-5.334,1.976-8.47,1.976-3.011,0-5.804-.659-8.376-1.976-2.573-1.318-3.858-3.294-3.858-5.929V52.586c0-2.132.721-3.953,2.165-5.458,1.441-1.506,3.354-2.259,5.74-2.259h37.266c8.282,0,15.778,1.194,22.492,3.576,6.711,2.386,12.074,6.432,16.092,12.14,4.014,5.711,6.023,13.584,6.023,23.62,0,7.279-1.068,13.458-3.2,18.539-2.136,5.082-5.053,9.161-8.753,12.234-1.656,1.376-3.419,2.595-5.288,3.656-3.864,2.194-5.364,6.992-3.243,10.897l20.671,38.053c.25.503.439,1.035.564,1.6.125.564.189,1.035.189,1.412,0,2.008-.754,4.017-2.259,6.022-1.505,2.009-3.421,3.641-5.74,4.894-2.323,1.253-4.738,1.882-7.247,1.882ZM498.227,101.595c0,2.662,2.158,4.82,4.82,4.82h15.883c6.146,0,11.039-1.506,14.68-4.517,3.637-3.012,5.459-8.155,5.459-15.434,0-7.529-1.821-12.766-5.459-15.716-3.641-2.946-8.534-4.423-14.68-4.423h-15.883c-2.662,0-4.82,2.158-4.82,4.82v30.449Z" fill="#fff"/><path d="M984.754,343.376c-1.632,0-3.231-.503-4.799-1.505-1.57-1.004-2.794-2.447-3.671-4.329l-24.482-47.588c-1.377-2.676-4.134-4.359-7.144-4.359h-2.875c-4.437,0-8.034,3.597-8.034,8.034v40.901c0,2.636-1.255,4.612-3.764,5.929-2.511,1.317-5.334,1.976-8.47,1.976-3.011,0-5.804-.659-8.376-1.976-2.573-1.318-3.858-3.294-3.858-5.929v-121.962c0-2.132.721-3.953,2.165-5.458,1.441-1.506,3.354-2.259,5.74-2.259h37.266c8.282,0,15.778,1.194,22.492,3.576,6.711,2.386,12.074,6.432,16.092,12.14,4.014,5.711,6.023,13.584,6.023,23.62,0,7.279-1.068,13.458-3.2,18.539-2.136,5.082-5.053,9.161-8.753,12.234-1.656,1.376-3.419,2.595-5.288,3.656-3.864,2.194-5.364,6.992-3.243,10.897l20.671,38.053c.25.503.439,1.035.564,1.6.125.564.189,1.035.189,1.412,0,2.008-.754,4.017-2.259,6.022-1.505,2.009-3.421,3.641-5.74,4.894-2.323,1.253-4.738,1.882-7.247,1.882ZM933.748,261.576c0,2.662,2.158,4.82,4.82,4.82h15.883c6.146,0,11.039-1.506,14.68-4.517,3.637-3.012,5.459-8.155,5.459-15.434,0-7.529-1.821-12.766-5.459-15.716-3.641-2.946-8.534-4.423-14.68-4.423h-15.883c-2.662,0-4.82,2.158-4.82,4.82v30.449Z" fill="#fff"/><path d="M596.096,182.453c-2.636,0-5.082-.659-7.341-1.976-2.259-1.318-3.387-3.294-3.387-5.929V52.774c0-2.635,1.129-4.612,3.387-5.929,2.259-1.318,4.705-1.977,7.341-1.977h67.003c2.759,0,4.735,1.129,5.929,3.388,1.191,2.258,1.788,4.643,1.788,7.152,0,2.461-.441,4.629-1.321,6.503-1.29,2.746-4.149,4.413-7.183,4.413h-44.444c-4.437,0-8.034,3.597-8.034,8.034v21.574c0,4.437,3.597,8.034,8.034,8.034h20.575c2.509,0,4.422.974,5.74,2.918,1.318,1.946,1.976,4.235,1.976,6.87,0,2.135-.597,4.235-1.788,6.305-1.193,2.071-3.169,3.105-5.928,3.105h-20.575c-4.437,0-8.034,3.597-8.034,8.034v21.763c0,4.437,3.597,8.034,8.034,8.034h44.443c3.038,0,5.899,1.672,7.188,4.424.877,1.873,1.316,4.036,1.316,6.493,0,2.512-.597,4.894-1.788,7.153-1.195,2.258-3.171,3.387-5.929,3.387h-67.003Z" fill="#fff"/><path d="M695.66,182.453c-2.257,0-4.58-.438-6.962-1.318-2.386-.876-4.395-2.07-6.023-3.576-1.632-1.505-2.446-3.262-2.446-5.27,0-.377.061-1.003.187-1.882l36.325-118.386c.877-2.759,2.853-4.829,5.929-6.212,3.073-1.379,6.367-2.071,9.881-2.071,3.637,0,6.964.691,9.975,2.071,3.011,1.382,4.955,3.453,5.834,6.212l36.327,118.386c.25.879.375,1.505.375,1.882,0,1.882-.845,3.608-2.54,5.176-1.695,1.571-3.735,2.794-6.117,3.67-2.386.879-4.705,1.318-6.964,1.318-2.009,0-3.735-.344-5.176-1.035-1.443-.688-2.417-1.977-2.917-3.859l-5.487-19.205c-.985-3.449-4.138-5.827-7.725-5.827h-31.125c-3.608,0-6.773,2.405-7.74,5.881l-5.328,19.151c-.504,1.882-1.505,3.171-3.011,3.859-1.507.691-3.264,1.035-5.271,1.035ZM722.552,133.33h19.997c3.198,0,5.51-3.058,4.638-6.135l-9.999-35.281c-1.325-4.675-7.951-4.675-9.276,0l-9.999,35.281c-.872,3.077,1.44,6.135,4.638,6.135Z" fill="#fff"/><path d="M813.293,182.453c-3.264,0-5.867-.753-7.812-2.259-1.946-1.505-2.917-3.323-2.917-5.458V52.586c0-2.132.97-3.953,2.917-5.458,1.945-1.506,4.547-2.259,7.812-2.259h33.314c8.28,0,15.778,1.412,22.49,4.235,6.712,2.823,12.046,7.405,15.998,13.74,3.954,6.338,5.929,14.774,5.929,25.314v51.006c0,10.54-1.976,18.98-5.929,25.315-3.952,6.338-9.286,10.916-15.998,13.739-6.712,2.823-14.21,4.235-22.49,4.235h-33.314ZM827.033,156.177c0,2.662,2.158,4.82,4.82,4.82h14.942c6.146,0,10.979-1.788,14.493-5.364,3.511-3.576,5.27-9.063,5.27-16.469v-51.006c0-7.402-1.759-12.893-5.27-16.469-3.514-3.576-8.346-5.364-14.493-5.364h-14.942c-2.662,0-4.82,2.158-4.82,4.82v85.031Z" fill="#fff"/><path d="M518.741,343.565c-8.407,0-15.998-1.412-22.773-4.235-6.775-2.823-12.171-7.403-16.186-13.74-4.018-6.334-6.023-14.774-6.023-25.314v-87.708c0-2.759,1.252-4.735,3.764-5.929,2.509-1.191,5.332-1.788,8.47-1.788,3.011,0,5.803.597,8.376,1.788,2.57,1.194,3.858,3.17,3.858,5.929v87.708c0,7.404,1.818,12.893,5.457,16.469,3.639,3.576,8.659,5.364,15.057,5.364,6.523,0,11.638-1.788,15.34-5.364,3.7-3.576,5.553-9.064,5.553-16.469v-87.708c0-2.759,1.252-4.735,3.764-5.929,2.509-1.191,5.332-1.788,8.47-1.788,3.011,0,5.803.597,8.376,1.788,2.57,1.194,3.858,3.17,3.858,5.929v87.708c0,10.54-2.009,18.98-6.023,25.314-4.018,6.338-9.444,10.917-16.281,13.74-6.839,2.823-14.524,4.235-23.056,4.235Z" fill="#fff"/><path d="M632.985,342.435c-3.138,0-5.961-.659-8.47-1.976-2.513-1.318-3.764-3.294-3.764-5.929v-99.624c0-4.437-3.597-8.034-8.034-8.034h-19.634c-2.386,0-4.268-1.129-5.646-3.388-1.382-2.258-2.07-4.828-2.07-7.716,0-2.27.463-4.421,1.395-6.458,1.269-2.774,4.15-4.459,7.201-4.459h78.734c2.759,0,4.735,1.162,5.929,3.482,1.191,2.323,1.788,4.799,1.788,7.435,0,2.888-.66,5.458-1.978,7.716-1.316,2.259-3.231,3.388-5.74,3.388h-19.444c-4.437,0-8.034,3.597-8.034,8.034v99.624c0,2.636-1.288,4.612-3.858,5.929-2.573,1.317-5.365,1.976-8.376,1.976Z" fill="#fff"/><path d="M737.631,342.435c-3.138,0-5.961-.659-8.47-1.976-2.513-1.318-3.764-3.294-3.764-5.929v-99.624c0-4.437-3.597-8.034-8.034-8.034h-19.634c-2.386,0-4.268-1.129-5.646-3.388-1.382-2.258-2.07-4.828-2.07-7.716,0-2.27.463-4.421,1.395-6.458,1.269-2.774,4.15-4.459,7.201-4.459h78.734c2.759,0,4.735,1.162,5.929,3.482,1.191,2.323,1.788,4.799,1.788,7.435,0,2.888-.66,5.458-1.978,7.716-1.316,2.259-3.231,3.388-5.74,3.388h-19.444c-4.437,0-8.034,3.597-8.034,8.034v99.624c0,2.636-1.288,4.612-3.858,5.929-2.573,1.317-5.365,1.976-8.376,1.976Z" fill="#fff"/><path d="M813.293,342.435c-2.636,0-5.082-.659-7.341-1.976-2.259-1.318-3.387-3.294-3.387-5.929v-121.774c0-2.635,1.129-4.612,3.387-5.929,2.259-1.318,4.705-1.977,7.341-1.977h67.003c2.759,0,4.735,1.129,5.929,3.388,1.191,2.258,1.788,4.643,1.788,7.152,0,2.461-.441,4.629-1.321,6.503-1.29,2.746-4.149,4.413-7.183,4.413h-44.444c-4.437,0-8.034,3.597-8.034,8.034v21.574c0,4.437,3.597,8.034,8.034,8.034h20.575c2.509,0,4.422.974,5.74,2.918,1.318,1.946,1.976,4.235,1.976,6.87,0,2.135-.597,4.235-1.788,6.305-1.193,2.071-3.169,3.105-5.928,3.105h-20.575c-4.437,0-8.034,3.597-8.034,8.034v21.763c0,4.437,3.597,8.034,8.034,8.034h44.443c3.038,0,5.899,1.672,7.188,4.424.877,1.873,1.316,4.036,1.316,6.493,0,2.512-.597,4.894-1.788,7.153-1.195,2.258-3.171,3.387-5.929,3.387h-67.003Z" fill="#fff"/><path d="M262.65,80.732L129.097,3.596c-4.121-2.36-8.729-3.596-13.337-3.596-5.469,0-10.752,1.686-15.323,4.833L15.398,53.946C5.919,58.404,0,67.62,0,78.11v199.151c0,9.515,5.133,18.394,13.374,23.152l133.591,77.136c7.231,4.158,15.398,6.368,23.564,6.368,9.029,0,17.87-2.585,25.587-7.53l85.302-49.226c15.697-8.204,25.437-24.238,25.437-41.921v-127.972c0-31.581-16.858-60.764-44.206-76.536ZM201.436,213.162c0,14.61-12.737,34.353-27.834,43.044-7.193,4.158-12.438,12.737-12.438,20.417,0,8.279,5.994,14.535,13.937,14.535,2.959,0,5.918-.862,8.803-2.51,4.159-2.435,8.167-3.746,11.314-3.746,1.836,0,6.218,0,6.218,8.766v42.932c0,19.068-16.033,30.907-30.907,30.907-5.357,0-10.526-1.424-15.359-4.196L21.579,286.177c-3.147-1.836-5.133-5.245-5.133-8.916V78.11c0-6.369,5.357-10.302,10.302-10.302,1.798,0,3.521.487,5.133,1.423l133.554,77.136c22.215,12.775,36.001,36.676,36.001,62.263v4.533ZM291.31,214.773c-18.207,10.489-32.93,33.716-32.93,51.923v37.013c0,12.925-7.343,22.478-16.708,27.348,1.311-4.046,2.06-8.354,2.06-12.962v-42.932c0-18.207-14.76-24.426-32.93-13.936-4.045,2.36-7.343.974-7.343-3.072s3.297-9.216,7.343-11.539c18.17-10.527,32.93-33.791,32.93-51.961v-4.496c0-29.371-15.659-56.531-41.096-71.216L73.464,44.393c.449-5.882,5.507-9.441,10.265-9.441,1.761,0,3.484.45,5.095,1.386l133.591,77.135c22.178,12.812,35.964,36.676,35.964,62.3v10.415c0,18.207,14.723,24.426,32.93,13.936,4.045-2.36,7.305-.974,7.305,3.072s-3.26,9.216-7.305,11.576Z" fill="#fff"/></svg>